<?xml version="1.0" standalone="no"?>
<!DOCTYPE svg>
<svg version="1.0" xmlns="http://www.w3.org/2000/svg"
 width="20.000000pt" height="20.000000pt" viewBox="0 0 20.000000 20.000000"
 preserveAspectRatio="xMidYMid meet">

<g transform="translate(0.000000,20.000000) scale(0.100000,-0.100000)"
fill="#4285f4" stroke="none">
<path d="M38 171 c-21 -21 -25 -120 -6 -139 16 -16 120 -16 136 0 7 7 12 37
12 68 0 45 -4 59 -22 74 -14 13 -23 15 -26 8 -5 -15 -62 -16 -62 -2 0 15 -13
11 -32 -9z m122 -86 l0 -45 -60 0 -60 0 0 45 0 45 60 0 60 0 0 -45z"/>
<path d="M60 100 c0 -15 5 -20 18 -18 9 2 17 10 17 18 0 8 -8 16 -17 18 -13 2
-18 -3 -18 -18z"/>
</g>
</svg>
